<svg width="763" height="483" viewBox="0 0 763 483" fill="none" xmlns="http://www.w3.org/2000/svg">
<circle cx="381.5" cy="34.5" r="11.5" fill="#FF4646"/>
<circle cx="381.5" cy="34.5" r="10.5" stroke="white" stroke-opacity="0.58" stroke-width="2"/>
<circle cx="392.5" cy="14.5" r="11.5" fill="#2FEBC9"/>
<circle cx="392.5" cy="14.5" r="10.5" stroke="white" stroke-opacity="0.58" stroke-width="2"/>
<circle cx="369.5" cy="14.5" r="11.5" fill="#D56FEE"/>
<circle cx="369.5" cy="14.5" r="10.5" stroke="white" stroke-opacity="0.58" stroke-width="2"/>
<circle cx="85.5" cy="187.5" r="11.5" fill="#FF4646"/>
<circle cx="85.5" cy="187.5" r="10.5" stroke="white" stroke-opacity="0.58" stroke-width="2"/>
<circle cx="677.5" cy="187.5" r="11.5" fill="#2FEBC9"/>
<circle cx="677.5" cy="187.5" r="10.5" stroke="white" stroke-opacity="0.58" stroke-width="2"/>
<circle cx="307.5" cy="329.5" r="11.5" fill="#FF4646"/>
<circle cx="307.5" cy="329.5" r="10.5" stroke="white" stroke-opacity="0.58" stroke-width="2"/>
<circle cx="455.5" cy="471.5" r="11.5" fill="#FF4646"/>
<circle cx="455.5" cy="471.5" r="10.5" stroke="white" stroke-opacity="0.58" stroke-width="2"/>
<circle cx="455.5" cy="329.5" r="11.5" fill="#2FEBC9"/>
<circle cx="455.5" cy="329.5" r="10.5" stroke="white" stroke-opacity="0.58" stroke-width="2"/>
<circle cx="307.5" cy="471.5" r="11.5" fill="#2FEBC9"/>
<circle cx="307.5" cy="471.5" r="10.5" stroke="white" stroke-opacity="0.58" stroke-width="2"/>
<circle cx="381.5" cy="187.5" r="11.5" fill="#D56FEE"/>
<circle cx="381.5" cy="187.5" r="10.5" stroke="white" stroke-opacity="0.58" stroke-width="2"/>
<circle cx="603.5" cy="329.5" r="11.5" fill="#FF4646"/>
<circle cx="603.5" cy="329.5" r="10.5" stroke="white" stroke-opacity="0.58" stroke-width="2"/>
<circle cx="751.5" cy="471.5" r="11.5" fill="#FF4646"/>
<circle cx="751.5" cy="471.5" r="10.5" stroke="white" stroke-opacity="0.58" stroke-width="2"/>
<circle cx="751.5" cy="329.5" r="11.5" fill="#D56FEE"/>
<circle cx="751.5" cy="329.5" r="10.5" stroke="white" stroke-opacity="0.58" stroke-width="2"/>
<circle cx="603.5" cy="471.5" r="11.5" fill="#D56FEE"/>
<circle cx="603.5" cy="471.5" r="10.5" stroke="white" stroke-opacity="0.58" stroke-width="2"/>
<circle cx="159.5" cy="329.5" r="11.5" fill="#2FEBC9"/>
<circle cx="159.5" cy="329.5" r="10.5" stroke="white" stroke-opacity="0.58" stroke-width="2"/>
<circle cx="11.5" cy="471.5" r="11.5" fill="#2FEBC9"/>
<circle cx="11.5" cy="471.5" r="10.5" stroke="white" stroke-opacity="0.58" stroke-width="2"/>
<circle cx="11.5" cy="329.5" r="11.5" fill="#D56FEE"/>
<circle cx="11.5" cy="329.5" r="10.5" stroke="white" stroke-opacity="0.58" stroke-width="2"/>
<circle cx="159.5" cy="471.5" r="11.5" fill="#D56FEE"/>
<circle cx="159.5" cy="471.5" r="10.5" stroke="white" stroke-opacity="0.58" stroke-width="2"/>
<path d="M11 451V351" stroke="#8F8F8F" stroke-width="2"/>
<path d="M159 451V351" stroke="#8F8F8F" stroke-width="2"/>
<path d="M307 451V351" stroke="#8F8F8F" stroke-width="2"/>
<path d="M381 172V60" stroke="#8F8F8F" stroke-width="2"/>
<path d="M456 451V351" stroke="#8F8F8F" stroke-width="2"/>
<path d="M604 451V351" stroke="#8F8F8F" stroke-width="2"/>
<path d="M752 451V351" stroke="#8F8F8F" stroke-width="2"/>
<path d="M17 308L74 208" stroke="#8F8F8F" stroke-width="2"/>
<path d="M154 308L97 208" stroke="#8F8F8F" stroke-width="2"/>
<path d="M313 308L370 208" stroke="#8F8F8F" stroke-width="2"/>
<path d="M96 172L356 42" stroke="#8F8F8F" stroke-width="2"/>
<path d="M667 172L407 42" stroke="#8F8F8F" stroke-width="2"/>
<path d="M450 308L393 208" stroke="#8F8F8F" stroke-width="2"/>
<path d="M609 308L666 208" stroke="#8F8F8F" stroke-width="2"/>
<path d="M746 308L689 208" stroke="#8F8F8F" stroke-width="2"/>
</svg>
