<svg width="763" height="339" viewBox="0 0 763 339" fill="none" xmlns="http://www.w3.org/2000/svg">
<circle cx="370.5" cy="34.5" r="11.5" fill="#FF4646"/>
<circle cx="370.5" cy="34.5" r="10.5" stroke="white" stroke-opacity="0.58" stroke-width="2"/>
<circle cx="393.5" cy="34.5" r="11.5" fill="#467AFF"/>
<circle cx="393.5" cy="34.5" r="10.5" stroke="white" stroke-opacity="0.58" stroke-width="2"/>
<circle cx="476.5" cy="172.5" r="11.5" fill="#467AFF"/>
<circle cx="476.5" cy="172.5" r="10.5" stroke="white" stroke-opacity="0.58" stroke-width="2"/>
<circle cx="393.5" cy="11.5" r="11.5" fill="#2FEBC9"/>
<circle cx="393.5" cy="11.5" r="10.5" stroke="white" stroke-opacity="0.58" stroke-width="2"/>
<circle cx="370.5" cy="11.5" r="11.5" fill="#D56FEE"/>
<circle cx="370.5" cy="11.5" r="10.5" stroke="white" stroke-opacity="0.58" stroke-width="2"/>
<circle cx="98.5" cy="172.5" r="11.5" fill="#FF4646"/>
<circle cx="98.5" cy="172.5" r="10.5" stroke="white" stroke-opacity="0.58" stroke-width="2"/>
<circle cx="665.5" cy="172.5" r="11.5" fill="#2FEBC9"/>
<circle cx="665.5" cy="172.5" r="10.5" stroke="white" stroke-opacity="0.58" stroke-width="2"/>
<circle cx="287.5" cy="309.5" r="11.5" fill="#467AFF"/>
<circle cx="287.5" cy="309.5" r="10.5" stroke="white" stroke-opacity="0.58" stroke-width="2"/>
<circle cx="224.5" cy="309.5" r="11.5" fill="#FF4646"/>
<circle cx="224.5" cy="309.5" r="10.5" stroke="white" stroke-opacity="0.58" stroke-width="2"/>
<circle cx="350.5" cy="309.5" r="11.5" fill="#2FEBC9"/>
<circle cx="350.5" cy="309.5" r="10.5" stroke="white" stroke-opacity="0.58" stroke-width="2"/>
<circle cx="287.5" cy="172.5" r="11.5" fill="#D56FEE"/>
<circle cx="287.5" cy="172.5" r="10.5" stroke="white" stroke-opacity="0.58" stroke-width="2"/>
<circle cx="98.5" cy="309.5" r="11.5" fill="#467AFF"/>
<circle cx="98.5" cy="309.5" r="10.5" stroke="white" stroke-opacity="0.58" stroke-width="2"/>
<circle cx="161.5" cy="309.5" r="11.5" fill="#2FEBC9"/>
<circle cx="161.5" cy="309.5" r="10.5" stroke="white" stroke-opacity="0.58" stroke-width="2"/>
<circle cx="35.5" cy="309.5" r="11.5" fill="#D56FEE"/>
<circle cx="35.5" cy="309.5" r="10.5" stroke="white" stroke-opacity="0.58" stroke-width="2"/>
<circle cx="413.5" cy="309.5" r="11.5" fill="#FF4646"/>
<circle cx="413.5" cy="309.5" r="10.5" stroke="white" stroke-opacity="0.58" stroke-width="2"/>
<circle cx="539.5" cy="309.5" r="11.5" fill="#2FEBC9"/>
<circle cx="539.5" cy="309.5" r="10.5" stroke="white" stroke-opacity="0.58" stroke-width="2"/>
<circle cx="476.5" cy="309.5" r="11.5" fill="#D56FEE"/>
<circle cx="476.5" cy="309.5" r="10.5" stroke="white" stroke-opacity="0.58" stroke-width="2"/>
<circle cx="728.5" cy="309.5" r="11.5" fill="#467AFF"/>
<circle cx="728.5" cy="309.5" r="10.5" stroke="white" stroke-opacity="0.58" stroke-width="2"/>
<circle cx="602.5" cy="309.5" r="11.5" fill="#FF4646"/>
<circle cx="602.5" cy="309.5" r="10.5" stroke="white" stroke-opacity="0.58" stroke-width="2"/>
<circle cx="665.5" cy="309.5" r="11.5" fill="#D56FEE"/>
<circle cx="665.5" cy="309.5" r="10.5" stroke="white" stroke-opacity="0.58" stroke-width="2"/>
<path d="M99 291V191" stroke="#8F8F8F" stroke-width="2"/>
<path d="M156 291L110 191" stroke="#8F8F8F" stroke-width="2"/>
<path d="M42 291L88 191" stroke="#8F8F8F" stroke-width="2"/>
<path d="M288 291V191" stroke="#8F8F8F" stroke-width="2"/>
<path d="M345 291L299 191" stroke="#8F8F8F" stroke-width="2"/>
<path d="M231 291L277 191" stroke="#8F8F8F" stroke-width="2"/>
<path d="M294 157L371 56" stroke="#8F8F8F" stroke-width="2"/>
<path d="M470 157L394 56" stroke="#8F8F8F" stroke-width="2"/>
<path d="M650 157L413 46" stroke="#8F8F8F" stroke-width="2"/>
<path d="M113 157L350 46" stroke="#8F8F8F" stroke-width="2"/>
<path d="M477 288V188" stroke="#8F8F8F" stroke-width="2"/>
<path d="M534 288L488 188" stroke="#8F8F8F" stroke-width="2"/>
<path d="M420 288L466 188" stroke="#8F8F8F" stroke-width="2"/>
<path d="M666 288V188" stroke="#8F8F8F" stroke-width="2"/>
<path d="M723 288L677 188" stroke="#8F8F8F" stroke-width="2"/>
<path d="M609 288L655 188" stroke="#8F8F8F" stroke-width="2"/>
</svg>
